<svg id="Layer_1" data-name="Layer 1" xmlns="http://www.w3.org/2000/svg" viewBox="0 0 286.83 286.99"><defs><style>.cls-1{fill:#fff;}</style></defs><title>JUNCTIONx_logos</title><path class="cls-1" d="M214.91,90.24l5.57-5.57a99.39,99.39,0,0,0-20-20l-5.57,5.57A91.49,91.49,0,0,1,214.91,90.24Z"/><path class="cls-1" d="M68.24,196.91l-5.58,5.57a99.37,99.37,0,0,0,20,20l5.57-5.57A91.53,91.53,0,0,1,68.24,196.91Z"/><path class="cls-1" d="M141.57,58.73a84.35,84.35,0,0,1,49.12,15.72l4.22-4.22a90.45,90.45,0,0,0-106.65,0l4.22,4.22A84.35,84.35,0,0,1,141.57,58.73Z"/><path class="cls-1" d="M50.85,143.58a90.23,90.23,0,0,0,17.39,53.33l4.22-4.22a84.56,84.56,0,0,1,0-98.24l-4.2-4.23A90.22,90.22,0,0,0,50.85,143.58Z"/><path class="cls-1" d="M141.57,228.42A84.35,84.35,0,0,1,92.46,212.7l-4.22,4.22a90.45,90.45,0,0,0,106.69,0l-4.22-4.22A84.36,84.36,0,0,1,141.57,228.42Z"/><path class="cls-1" d="M232.3,143.58a90.23,90.23,0,0,0-17.39-53.33l-4.22,4.22a84.56,84.56,0,0,1,0,98.21l4.22,4.22A90.22,90.22,0,0,0,232.3,143.58Z"/><path class="cls-1" d="M246.93,143.58a104.79,104.79,0,0,0-21.58-63.77l-4.87,4.87a98.34,98.34,0,0,1,0,117.81l4.87,4.87A104.79,104.79,0,0,0,246.93,143.58Z"/><path class="cls-1" d="M141.57,242.1a98,98,0,0,1-58.92-19.61l-4.85,4.87a105.06,105.06,0,0,0,127.58,0l-4.87-4.87A98,98,0,0,1,141.57,242.1Z"/><path class="cls-1" d="M77.81,59.78l4.87,4.86a98.33,98.33,0,0,1,117.81,0l4.87-4.87a105.06,105.06,0,0,0-127.55,0Z"/><path class="cls-1" d="M36.22,143.58A104.79,104.79,0,0,0,57.8,207.36l4.86-4.87a98.33,98.33,0,0,1,0-117.85l-4.85-4.87A104.79,104.79,0,0,0,36.22,143.58Z"/><path class="cls-1" d="M62.68,84.64l5.57,5.57a91.5,91.5,0,0,1,20-20l-5.58-5.57A99.37,99.37,0,0,0,62.68,84.64Z"/><path class="cls-1" d="M220.51,202.47l-5.57-5.57a91.47,91.47,0,0,1-20,20l5.57,5.57A99.31,99.31,0,0,0,220.51,202.47Z"/><path class="cls-1" d="M191.22,114.34,172.49,95.61l-29.07,29.07L114.34,95.61,95.61,114.34l29.07,29.07L95.61,172.49l18.73,18.73,29.07-29.07,11.3-11.3,3.89-3.89,25.24,25.24L180,176.09l-25.24-25.24-3.87,3.87L176.09,180l-3.89,3.89L147,158.61l-3.54,3.54,29.07,29.07,18.73-18.73-29.07-29.07ZM114.63,103l25.24,25.24L136,132.11l-25.24-25.24ZM103,114.63l3.89-3.89L132.11,136l-3.89,3.89Zm0,57.56L172.2,103l3.89,3.89-69.22,69.22Zm11.65,11.65L110.74,180,180,110.74l3.89,3.89Z"/></svg>