<svg width="354.32501" height="354.32501" id="logo" viewBox="10 9 354 354" xmlns="http://www.w3.org/2000/svg" version="1.1">
<defs>
        <linearGradient id="gradient" x1="100%" y1="100%">
          <stop offset="0%" stop-color="black" stop-opacity=".5">
            <animate attributeName="stop-color" begin = "2s" values="black;lightblue;black;lightblue;#89BD25;black;blue;red;purple;#89BD25;lightblue; lightblue; black;" dur="90s" repeatCount="indefinite" />
          </stop>
          <stop offset="100%" stop-color="black" stop-opacity=".5">
            <animate attributeName="stop-color" begin = "2s" values="black;black;lightblue;lightblue;black;#89BD25;orange;purple;#89BD25;blue;lightblue; black;" dur="90s" repeatCount="indefinite" />
          </stop>
        </linearGradient>
</defs>
	<g id="g3370" transform="matrix(1.25,0,0,-1.25,0,354.325)">
    <g id="g3372">
      <g id="g3374" clip-path="url(#clipPath3376)">
        <rect fill="url(#gradient)" id="logo_bg" width="262.01126" height="261.58661" x="11.040994" y="-272.62759" transform="scale(1,-1)"/>
        <path d="m 237.85573,52.401715 -32.474,0 0,-4.708 32.474,0 0,4.708 z m -137.07,104.246005 c -0.3,0.382 -0.662,0.574 -1.086005,0.574 -0.372,0 -0.684,-0.13 -0.94,-0.384 -0.256,-0.254 -0.382,-0.568 -0.382,-0.938 0,-0.298 0.076,-0.54 0.234,-0.726 l 11.640005,-15.008 -11.578005,-14.902 c -0.198,-0.244 -0.296,-0.52 -0.296,-0.832 0,-0.368 0.126,-0.68 0.382,-0.938 0.256,-0.254 0.568,-0.384 0.94,-0.384 0.412005,0 0.738005,0.148 0.980005,0.452 l 11.256,14.432 11.256,-14.432 c 0.258,-0.304 0.59,-0.452 1.004,-0.452 0.354,0 0.66,0.13 0.918,0.384 0.252,0.258 0.382,0.57 0.382,0.938 0,0.324 -0.094,0.604 -0.278,0.832 l -11.598,14.902 11.664,14.988 c 0.14,0.214 0.212,0.462 0.212,0.746 0,0.37 -0.13,0.684 -0.382,0.938 -0.258,0.254 -0.564,0.384 -0.918,0.384 -0.414,0 -0.784,-0.192 -1.108,-0.574 l -11.152,-14.326 -11.15,14.326 z m -2.862005,41.586 c 0.206,-0.208 0.444,-0.368 0.714,-0.482 0.272,-0.112 0.57,-0.168 0.896,-0.168 l 19.720005,0 c 0.624,0 1.158,0.218 1.6,0.66 0.44,0.44 0.66,0.974 0.66,1.598 0,0.626 -0.22,1.16 -0.66,1.6 -0.442,0.44 -0.976,0.66 -1.6,0.66 l -17.46,0 0,10.276 12.536,0 c 0.624,0 1.158,0.22 1.598,0.662 0.44,0.44 0.662,0.974 0.662,1.598 0,0.626 -0.222,1.16 -0.662,1.6 -0.44,0.44 -0.974,0.66 -1.598,0.66 l -12.536,0 0,10.276 17.46,0 c 0.624,0 1.158,0.22 1.6,0.66 0.44,0.442 0.66,0.976 0.66,1.6 0,0.626 -0.22,1.158 -0.66,1.6 -0.442,0.44 -0.976,0.66 -1.6,0.66 l -19.720005,0 c -0.326,0 -0.624,-0.058 -0.896,-0.17 -0.27,-0.114 -0.508,-0.274 -0.714,-0.48 -0.206,-0.208 -0.366,-0.448 -0.478,-0.724 -0.116,-0.276 -0.172,-0.574 -0.172,-0.886 l 0,-29.592 c 0,-0.328 0.056,-0.624 0.172,-0.894 0.112,-0.272 0.272,-0.508 0.478,-0.714 m -53.326,-115.158005 c -0.362,0 -0.674,-0.13 -0.932,-0.388 -0.26,-0.26 -0.39,-0.58 -0.39,-0.958 0,-0.36 0.13,-0.67 0.39,-0.928 0.258,-0.26 0.57,-0.388 0.932,-0.388 l 10.226,0 0,-30.66 c 0,-0.374 0.128,-0.69 0.39,-0.948 0.258,-0.264 0.576,-0.392 0.952,-0.392 0.374,0 0.69,0.128 0.942,0.392 0.254,0.258 0.38,0.574 0.38,0.948 l 0,30.66 10.224,0 c 0.374,0 0.694,0.128 0.954,0.388 0.258,0.258 0.39,0.568 0.39,0.928 0,0.378 -0.132,0.698 -0.39,0.958 -0.26,0.258 -0.58,0.388 -0.954,0.388 l -23.114,0 z m 226.444005,-69.739999 -257.712005,0 0,257.712004 257.712005,0 0,-257.712004 z M 8.9177254,8.9177157 l 266.5360046,0 0,266.5400043 -266.5360046,0 0,-266.5400043 z M 44.363725,227.17372 l 8.42,0 0,-27.332 c 0,-0.624 0.222,-1.158 0.66,-1.598 0.442,-0.442 0.974,-0.66 1.6,-0.66 0.626,0 1.158,0.218 1.598,0.66 0.44,0.44 0.662,0.974 0.662,1.598 l 0,27.332 8.422,0 c 0.624,0 1.158,0.22 1.6,0.66 0.44,0.442 0.66,0.976 0.66,1.6 0,0.626 -0.22,1.158 -0.66,1.6 -0.442,0.44 -0.976,0.66 -1.6,0.66 l -21.362,0 c -0.626,0 -1.16,-0.22 -1.6,-0.66 -0.44,-0.442 -0.66,-0.974 -0.66,-1.6 0,-0.624 0.22,-1.158 0.66,-1.6 0.44,-0.44 0.974,-0.66 1.6,-0.66 m 1.848,-69.952 c -0.37,0 -0.682,-0.13 -0.938,-0.384 -0.254,-0.254 -0.384,-0.568 -0.384,-0.938 l 0,-31.468 c 0,-0.368 0.13,-0.68 0.384,-0.938 0.256,-0.254 0.568,-0.384 0.938,-0.384 l 20.998,0 c 0.358,0 0.664,0.13 0.918,0.384 0.256,0.258 0.384,0.57 0.384,0.938 0,0.354 -0.128,0.66 -0.384,0.918 -0.254,0.254 -0.56,0.386 -0.918,0.386 l -19.698,0 0,13.108 14.434,0 c 0.368,0 0.682,0.128 0.938,0.384 0.256,0.256 0.384,0.57 0.384,0.938 0,0.37 -0.128,0.682 -0.384,0.938 -0.256,0.258 -0.57,0.384 -0.938,0.384 l -14.434,0 0,13.112 19.698,0 c 0.358,0 0.664,0.128 0.918,0.384 0.256,0.256 0.384,0.562 0.384,0.916 0,0.37 -0.128,0.684 -0.384,0.938 -0.254,0.254 -0.56,0.384 -0.918,0.384 l -20.998,0 z M 122.01973,80.413715 c 0.36,0 0.672,0.128 0.93,0.388 0.262,0.258 0.39,0.568 0.39,0.928 0,0.378 -0.128,0.698 -0.39,0.958 -0.258,0.258 -0.57,0.388 -0.93,0.388 l -21.34,0 c -0.376,0 -0.692005,-0.13 -0.952005,-0.388 -0.262,-0.26 -0.39,-0.58 -0.39,-0.958 l 0,-31.976 c 0,-0.374 0.128,-0.69 0.39,-0.948 0.26,-0.264 0.576005,-0.392 0.952005,-0.392 l 21.34,0 c 0.36,0 0.672,0.128 0.93,0.392 0.262,0.258 0.39,0.574 0.39,0.948 0,0.364 -0.128,0.674 -0.39,0.934 -0.258,0.262 -0.57,0.388 -0.93,0.388 l -20.018,0 0,13.326 14.666,0 c 0.376,0 0.696,0.128 0.952,0.388 0.262,0.262 0.392,0.578 0.392,0.958 0,0.372 -0.13,0.688 -0.392,0.952 -0.256,0.258 -0.576,0.386 -0.952,0.386 l -14.666,0 0,13.328 20.018,0 z m 41.894,-15.126 -7.56,0 0,15.126 7.56,0 c 2.078,0 3.86,-0.744 5.33,-2.238 1.47,-1.424 2.206,-3.202 2.206,-5.324 0,-2.098 -0.736,-3.878 -2.206,-5.352 -1.47,-1.476 -3.252,-2.212 -5.33,-2.212 m 3.77,-1.992 c 1.372,0.622 2.526,1.402 3.466,2.342 1.976,1.976 2.968,4.38 2.968,7.214 0,2.83 -0.996,5.238 -2.994,7.234 -1.972,1.994 -4.38,2.99 -7.21,2.99 l -8.906,0 c -0.358,0 -0.67,-0.13 -0.928,-0.388 -0.26,-0.26 -0.392,-0.58 -0.392,-0.958 l 0,-31.976 c 0,-0.374 0.132,-0.69 0.392,-0.948 0.258,-0.264 0.57,-0.392 0.928,-0.392 0.378,0 0.694,0.128 0.958,0.392 0.258,0.258 0.388,0.574 0.388,0.948 l 0,12.87 7.56,0 c 0.374,0 0.718,0.016 1.016,0.044 l 8.474,-13.536 c 0.316,-0.478 0.71,-0.718 1.17,-0.718 0.374,0 0.69,0.128 0.952,0.392 0.262,0.258 0.388,0.574 0.388,0.948 0,0.248 -0.076,0.49 -0.234,0.718 l -7.996,12.824 z m 0.176,134.288005 c 3.98,0 7.556,1.262 10.726,3.794 0.468,0.484 0.698,1.022 0.698,1.62 0,0.312 -0.056,0.608 -0.18,0.884 -0.116,0.278 -0.284,0.514 -0.488,0.716 -0.208,0.198 -0.442,0.36 -0.716,0.478 -0.272,0.12 -0.558,0.182 -0.874,0.182 -0.508,-0.014 -0.95,-0.15 -1.324,-0.406 -2.258,-1.832 -4.874,-2.75 -7.842,-2.75 -3.486,0 -6.444,1.222 -8.888,3.666 -2.432,2.43 -3.648,5.388 -3.648,8.87 0,3.468 1.216,6.416 3.648,8.85 2.458,2.456 5.422,3.686 8.888,3.686 1.466,0 2.844,-0.226 4.148,-0.682 1.3,-0.454 2.488,-1.108 3.57,-1.96 0.48,-0.426 1.002,-0.642 1.556,-0.642 0.314,0 0.61,0.058 0.888,0.172 0.276,0.112 0.516,0.272 0.722,0.48 0.206,0.206 0.37,0.444 0.478,0.712 0.116,0.274 0.168,0.57 0.168,0.896 0,0.656 -0.196,1.174 -0.594,1.558 -3.256,2.658 -6.9,3.986 -10.936,3.986 -4.702,0 -8.724,-1.67 -12.068,-5.01 -3.326,-3.326 -4.988,-7.342 -4.988,-12.046 0,-4.718 1.662,-8.74 4.988,-12.066 3.326,-3.328 7.346,-4.988 12.068,-4.988 m 42.914,0 c 0.62,0 1.158,0.218 1.598,0.66 0.44,0.44 0.662,0.974 0.662,1.598 l 0,12.536 15.196,0 0,-12.536 c 0,-0.624 0.22,-1.158 0.662,-1.598 0.44,-0.442 0.976,-0.66 1.598,-0.66 0.628,0 1.16,0.218 1.6,0.66 0.442,0.44 0.662,0.974 0.662,1.598 l 0,29.592 c 0,0.626 -0.22,1.158 -0.662,1.6 -0.44,0.44 -0.972,0.66 -1.6,0.66 -0.622,0 -1.158,-0.22 -1.598,-0.66 -0.442,-0.442 -0.662,-0.974 -0.662,-1.6 l 0,-12.536 -15.196,0 0,12.536 c 0,0.626 -0.222,1.158 -0.662,1.6 -0.44,0.44 -0.978,0.66 -1.598,0.66 -0.624,0 -1.16,-0.22 -1.6,-0.66 -0.442,-0.442 -0.66,-0.974 -0.66,-1.6 l 0,-29.592 c 0,-0.624 0.218,-1.158 0.66,-1.598 0.44,-0.442 0.976,-0.66 1.6,-0.66 m -33.174,-42.984 c 0.352,0 0.66,0.128 0.914,0.384 0.254,0.256 0.382,0.562 0.382,0.916 0,0.37 -0.128,0.684 -0.382,0.938 -0.254,0.254 -0.562,0.384 -0.914,0.384 l -21.002,0 c -0.374,0 -0.684,-0.13 -0.938,-0.384 -0.26,-0.254 -0.382,-0.568 -0.382,-0.938 l 0,-31.468 c 0,-0.368 0.122,-0.68 0.382,-0.938 0.254,-0.254 0.564,-0.384 0.938,-0.384 l 21.002,0 c 0.352,0 0.66,0.13 0.914,0.384 0.254,0.258 0.382,0.57 0.382,0.938 0,0.354 -0.128,0.66 -0.382,0.918 -0.254,0.254 -0.562,0.386 -0.914,0.386 l -19.7,0 0,13.108 14.432,0 c 0.368,0 0.68,0.128 0.94,0.384 0.254,0.256 0.382,0.57 0.382,0.938 0,0.37 -0.128,0.682 -0.382,0.938 -0.26,0.258 -0.572,0.384 -0.94,0.384 l -14.432,0 0,13.112 19.7,0 z" style="fill:#fff;fill-opacity:1;fill-rule:nonzero;stroke:none" id="path3380" />
      </g>
    </g>
  </g>
</svg>